<?xml version="1.0" standalone="no"?>
<!DOCTYPE svg PUBLIC "-//W3C//DTD SVG 20010904//EN"
 "http://www.w3.org/TR/2001/REC-SVG-20010904/DTD/svg10.dtd">
<svg version="1.0" xmlns="http://www.w3.org/2000/svg"
 width="383.000000pt" height="383.000000pt" viewBox="0 0 383.000000 383.000000"
 preserveAspectRatio="xMidYMid meet">
<metadata>
Created by potrace 1.14, written by Peter Selinger 2001-2017
</metadata>
<g transform="translate(0.000000,383.000000) scale(0.100000,-0.100000)"
fill="#000000" stroke="none">
<path d="M2116 3811 c-18 -20 -18 -32 0 -201 2 -25 7 -72 10 -105 3 -33 7 -73
9 -90 2 -16 6 -66 10 -110 3 -44 8 -93 10 -110 20 -158 23 -145 -50 -227 -22
-25 -58 -66 -80 -92 -22 -27 -49 -58 -60 -70 -11 -13 -43 -49 -71 -82 -28 -32
-86 -99 -129 -149 -42 -49 -87 -101 -99 -115 -43 -52 -141 -165 -146 -170 -3
-3 -30 -34 -60 -70 -30 -35 -66 -77 -79 -92 -19 -21 -233 -385 -393 -668 -11
-19 -65 -113 -120 -208 -55 -95 -109 -201 -120 -235 -44 -138 -4 -298 99 -401
182 -183 451 -186 615 -7 29 32 86 116 126 187 41 71 78 136 83 144 5 8 103
177 217 376 l207 360 205 586 205 586 45 21 c25 12 179 83 343 158 257 117
298 139 304 161 3 14 2 32 -4 41 -8 13 -294 184 -378 226 -16 9 -40 23 -53 33
-22 17 -22 20 -11 64 12 42 11 49 -6 68 -26 29 -52 25 -92 -15 l-35 -35 -225
130 c-124 72 -233 130 -242 130 -10 0 -26 -9 -35 -19z m272 -232 c86 -50 158
-92 159 -93 1 0 -24 -30 -54 -66 -31 -36 -76 -89 -102 -119 -25 -30 -51 -59
-56 -65 -6 -6 -22 -26 -37 -43 -32 -39 -34 -36 -43 82 -3 44 -8 96 -10 115
-11 97 -15 131 -21 203 -3 42 -3 77 1 77 3 0 77 -41 163 -91z m637 -370 c5 -6
4 -9 -4 -9 -7 0 -60 -22 -118 -50 -58 -27 -106 -50 -108 -50 -2 0 -52 -22
-110 -50 -96 -45 -125 -56 -125 -47 0 3 118 340 135 384 3 8 59 -19 162 -78
87 -50 162 -95 168 -100z m-525 -50 c-33 -95 -60 -174 -60 -176 0 -5 -92 47
-107 61 -10 9 -7 18 15 42 15 16 67 78 117 137 49 59 90 107 92 107 1 0 -24
-77 -57 -171z m-121 -269 l22 -15 -59 -170 c-85 -240 -190 -542 -258 -735 -31
-91 -61 -176 -66 -188 l-8 -24 -58 33 c-88 50 -114 64 -158 90 -23 13 -103 59
-178 103 -121 70 -153 97 -128 108 4 2 32 32 62 68 30 36 57 67 60 70 3 3 43
50 90 105 47 55 87 102 90 105 3 3 30 34 60 69 30 36 62 72 70 81 8 9 33 38
55 64 22 27 47 56 56 65 8 9 55 63 105 121 49 58 94 110 99 116 9 11 71 -17
144 -66z m-886 -959 c37 -22 70 -41 72 -41 3 0 24 -11 46 -26 22 -14 56 -34
75 -45 19 -10 51 -29 72 -40 87 -50 197 -113 200 -115 2 -1 -7 -22 -21 -46
-44 -79 -399 -693 -403 -697 -2 -2 -81 41 -176 95 -94 54 -176 101 -182 103
-6 2 -13 7 -16 10 -3 3 -25 17 -50 30 -25 14 -64 36 -87 50 l-41 26 54 95 c29
52 58 102 63 110 5 8 51 87 101 175 154 267 213 364 219 361 3 -2 36 -22 74
-45z m-36 -1097 l22 -14 -35 -57 c-47 -78 -88 -119 -153 -151 -169 -82 -398
28 -444 214 -21 81 -12 147 31 229 49 95 23 101 305 -62 139 -79 262 -151 274
-159z"/>
</g>
</svg>
