<svg width="279" height="77" viewBox="0 0 279 77" fill="none" xmlns="http://www.w3.org/2000/svg">
<path d="M8.65869 62.9048V30.6284H0V30.2915L2.729 24.4966H8.65869V12.3676L15.0601 9.33542H15.397V24.4966H24.0557V24.8335L21.3267 30.6284H15.397V59.8725L8.99561 62.9048H8.65869Z" fill="white"/>
<path d="M27.8817 48.7544V37.2993C27.8817 33.5932 29.2742 30.3701 32.0594 27.6299C34.6649 25.0918 37.9329 23.8227 41.8636 23.8227C45.7493 23.8227 49.0174 25.0918 51.6678 27.6299C54.4529 30.3252 55.8455 33.5483 55.8455 37.2993V48.7544C55.8455 52.4604 54.4529 55.6836 51.6678 58.4238C49.0623 60.9619 45.7943 62.2309 41.8636 62.2309C37.9779 62.2309 34.7098 60.9619 32.0594 58.4238C29.2742 55.7285 27.8817 52.5053 27.8817 48.7544ZM34.6199 48.7544C34.6199 51.3374 35.3162 53.2353 36.7088 54.4482C38.1238 55.6386 39.8421 56.2339 41.8636 56.2339C43.8851 56.2339 45.5921 55.6386 46.9847 54.4482C48.3997 53.2353 49.1072 51.3374 49.1072 48.7544V37.2993C49.1072 34.7163 48.3997 32.8296 46.9847 31.6391C45.5921 30.4262 43.8851 29.8198 41.8636 29.8198C39.8421 29.8198 38.1238 30.4262 36.7088 31.6391C35.3162 32.8296 34.6199 34.7163 34.6199 37.2993V48.7544Z" fill="white"/>
<path d="M63.8829 62.9048V37.2993C63.8829 33.5932 65.2755 30.3701 68.0607 27.6299C70.6662 25.0918 73.9342 23.8227 77.8649 23.8227H82.4132V24.1596L79.7179 29.8198H77.8649C75.8434 29.8198 74.1251 30.4262 72.7101 31.6391C71.3175 32.8296 70.6212 34.7163 70.6212 37.2993C70.6212 37.2993 70.6212 44.8237 70.6212 59.8725L64.2199 62.9048H63.8829Z" fill="white"/>
<path d="M108.981 37.2993C108.981 34.7163 108.273 32.8296 106.858 31.6391C105.466 30.4262 103.759 29.8198 101.737 29.8198C99.7158 29.8198 97.9975 30.4262 96.5825 31.6391C95.1899 32.8296 94.4936 34.7163 94.4936 37.2993V48.7544C94.4936 51.3374 95.1899 53.2353 96.5825 54.4482C97.9975 55.6386 99.7158 56.2339 101.737 56.2339C103.759 56.2339 105.466 55.6386 106.858 54.4482C108.273 53.2353 108.981 51.3374 108.981 48.7544V37.2993ZM115.719 37.2993V48.7544C115.719 52.4604 114.327 55.6836 111.541 58.4238C108.936 60.9619 105.668 62.2309 101.737 62.2309C98.7724 62.2309 96.3579 61.2763 94.4936 59.3672V73.686L88.0922 76.7182H87.7553V37.2993C87.7553 33.5932 89.1479 30.3701 91.9331 27.6299C94.5385 25.0918 97.8066 23.8227 101.737 23.8227C105.623 23.8227 108.891 25.0918 111.541 27.6299C114.327 30.3252 115.719 33.5483 115.719 37.2993Z" fill="white"/>
<path d="M151.72 46.6318V48.7544C151.72 52.4604 150.328 55.6836 147.543 58.4238C144.937 60.9619 141.669 62.2309 137.739 62.2309C133.853 62.2309 130.585 60.9619 127.934 58.4238C125.149 55.7285 123.757 52.5053 123.757 48.7544V37.2993C123.757 33.5932 125.149 30.3701 127.934 27.6299C130.54 25.0918 133.808 23.8227 137.739 23.8227C141.557 23.8227 144.825 25.0918 147.543 27.6299C150.328 30.2353 151.72 33.1328 151.72 36.3222V36.3896L131.169 52.4941C131.506 53.2578 131.977 53.8979 132.584 54.4145C133.999 55.6274 135.717 56.2339 137.739 56.2339C139.76 56.2339 141.467 55.6274 142.86 54.4145C144.275 53.2016 144.982 51.6181 144.982 49.664L151.384 46.6318H151.72ZM130.495 45.6884L144.578 34.2671C144.219 33.1665 143.657 32.2905 142.893 31.6391C141.478 30.4262 139.76 29.8198 137.739 29.8198C135.717 29.8198 133.999 30.4262 132.584 31.6391C131.191 32.8296 130.495 34.7163 130.495 37.2993V45.6884Z" fill="white"/>
<path d="M166.496 48.7544C166.496 51.3374 167.192 53.2353 168.585 54.4482C170 55.6386 171.718 56.2339 173.74 56.2339C175.761 56.2339 177.468 55.6386 178.861 54.4482C180.276 53.2353 180.983 51.3374 180.983 48.7544V37.2993C180.983 34.7163 180.276 32.8296 178.861 31.6391C177.468 30.4262 175.761 29.8198 173.74 29.8198C171.718 29.8198 170 30.4262 168.585 31.6391C167.192 32.8296 166.496 34.7163 166.496 37.2993V48.7544ZM159.758 48.7544V37.2993C159.758 33.5932 161.15 30.3701 163.936 27.6299C166.541 25.0918 169.809 23.8227 173.74 23.8227C176.705 23.8227 179.119 24.7773 180.983 26.6865V12.3676L187.385 9.33542H187.722V48.7544C187.722 52.4604 186.329 55.6836 183.544 58.4238C180.939 60.9619 177.671 62.2309 173.74 62.2309C169.854 62.2309 166.586 60.9619 163.936 58.4238C161.15 55.7285 159.758 52.5053 159.758 48.7544Z" fill="white"/>
<path d="M197.444 48.7544V37.2993C197.444 33.5932 198.836 30.3701 201.622 27.6299C204.227 25.0918 207.495 23.8227 211.426 23.8227C215.311 23.8227 218.58 25.0918 221.23 27.6299C224.015 30.3252 225.408 33.5483 225.408 37.2993V48.7544C225.408 52.4604 224.015 55.6836 221.23 58.4238C218.624 60.9619 215.356 62.2309 211.426 62.2309C207.54 62.2309 204.272 60.9619 201.622 58.4238C198.836 55.7285 197.444 52.5053 197.444 48.7544ZM204.182 48.7544C204.182 51.3374 204.878 53.2353 206.271 54.4482C207.686 55.6386 209.404 56.2339 211.426 56.2339C213.447 56.2339 215.154 55.6386 216.547 54.4482C217.962 53.2353 218.669 51.3374 218.669 48.7544V37.2993C218.669 34.7163 217.962 32.8296 216.547 31.6391C215.154 30.4262 213.447 29.8198 211.426 29.8198C209.404 29.8198 207.686 30.4262 206.271 31.6391C204.878 32.8296 204.182 34.7163 204.182 37.2993V48.7544Z" fill="white"/>
<path d="M278.096 11.6266L269.281 6.53704L269.739 5.22721C269.908 4.7438 269.71 4.20846 269.266 3.95244C268.823 3.69656 268.26 3.79188 267.926 4.18011L267.02 5.23213L258.205 0.142815C257.86 -0.0567221 257.432 -0.0465104 257.096 0.169316C256.761 0.38506 256.574 0.769997 256.612 1.1671L258.004 15.7108L241.824 34.513C241.781 34.5634 241.742 34.6178 241.709 34.6753L230.23 54.558C230.037 54.891 229.864 55.2716 229.715 55.6893C228.081 60.2648 230.446 64.1013 233.516 65.8736C235.372 66.945 237.752 67.4165 240.04 66.8036C241.536 66.4026 242.993 65.5378 244.237 64.0732C244.524 63.7351 244.767 63.3949 244.959 63.0618L256.438 43.179C256.471 43.1215 256.499 43.0609 256.521 42.9982L264.715 19.5851L278.006 13.5188C278.368 13.3531 278.608 12.9986 278.627 12.6002C278.646 12.2019 278.442 11.8261 278.096 11.6266ZM258.93 3.02221L265.606 6.87639L259.93 13.4718L258.93 3.02221ZM243.113 61.9963C242.985 62.2185 242.817 62.4532 242.612 62.6936C240.101 65.6505 236.717 65.2604 234.582 64.028C232.447 62.7954 230.417 60.0597 231.722 56.4062C231.828 56.109 231.947 55.8458 232.075 55.6234L233.142 53.7758L244.18 60.1487L243.113 61.9963ZM245.246 58.303L234.208 51.9301L242.822 37.0091L253.861 43.382L245.246 58.303ZM254.8 41.4639L244.013 35.236L259.516 17.2207L262.651 19.0305L254.8 41.4639ZM263.368 16.9834L260.931 15.5766L265.867 9.83999L263.368 16.9834ZM265.69 16.7974L268.564 8.58449L275.24 12.4387L265.69 16.7974Z" fill="white"/>
</svg>
